<svg width="15" height="15" viewBox="0 0 15 15" fill="none" xmlns="http://www.w3.org/2000/svg">
<path fill-rule="evenodd" clip-rule="evenodd" d="M7.5 15C11.6421 15 15 11.6421 15 7.5C15 3.35786 11.6421 0 7.5 0C3.35786 0 0 3.35786 0 7.5C0 11.6421 3.35786 15 7.5 15ZM7.50012 3.06985C7.004 3.06985 6.60192 3.47205 6.60192 3.9681V9.35356L5.64376 8.71479C5.23102 8.43968 4.67333 8.55114 4.39813 8.96394C4.12297 9.3767 4.23447 9.93444 4.64727 10.2096L7.00183 11.7793C7.30369 11.9806 7.69683 11.9803 7.99848 11.7793L10.3528 10.2096C10.7656 9.93443 10.877 9.37662 10.6019 8.96389C10.3267 8.55122 9.76891 8.43968 9.35617 8.71494L8.3984 9.35347V3.9681C8.3984 3.47198 7.99617 3.06985 7.50012 3.06985Z" />
</svg>
