<svg width="15" height="15" viewBox="0 0 15 15" fill="none" xmlns="http://www.w3.org/2000/svg">
<path d="M6.60192 3.9681C6.60192 3.47205 7.004 3.06985 7.50012 3.06985C7.99617 3.06985 8.3984 3.47198 8.3984 3.9681V9.35347L9.35617 8.71494C9.76891 8.43968 10.3267 8.55122 10.6019 8.96389C10.877 9.37662 10.7656 9.93443 10.3528 10.2096L7.99848 11.7793C7.69683 11.9803 7.30369 11.9806 7.00183 11.7793L4.64727 10.2096C4.23447 9.93444 4.12297 9.3767 4.39813 8.96394C4.67333 8.55114 5.23102 8.43968 5.64376 8.71479L6.60192 9.35356V3.9681Z" />
<path fill-rule="evenodd" clip-rule="evenodd" d="M15 7.5C15 11.6421 11.6421 15 7.5 15C3.35786 15 0 11.6421 0 7.5C0 3.35786 3.35786 0 7.5 0C11.6421 0 15 3.35786 15 7.5ZM13.875 7.5C13.875 11.0208 11.0208 13.875 7.5 13.875C3.97918 13.875 1.125 11.0208 1.125 7.5C1.125 3.97918 3.97918 1.125 7.5 1.125C11.0208 1.125 13.875 3.97918 13.875 7.5Z" />
</svg>
