<svg width="20" height="19" viewBox="0 0 20 19" fill="none" xmlns="http://www.w3.org/2000/svg">
<path fill-rule="evenodd" clip-rule="evenodd" d="M4.35726 8.99251L5.47183 7.8779C5.81142 7.5383 6.362 7.5383 6.70159 7.8779C7.04117 8.21747 7.04117 8.76807 6.70159 9.10764L4.09289 11.7163C3.92981 11.8794 3.70864 11.971 3.47801 11.971C3.24739 11.971 3.02622 11.8794 2.86314 11.7163L0.254446 9.10764C-0.0851408 8.76807 -0.0851408 8.21747 0.254446 7.8779C0.594032 7.5383 1.14461 7.5383 1.4842 7.8779L2.6155 9.0092C2.80078 4.37045 6.61991 0.666687 11.3041 0.666687C16.1066 0.666687 19.9998 4.55986 19.9998 9.36234C19.9998 14.1648 16.1066 18.058 11.3041 18.058C8.57208 18.058 6.13393 16.797 4.54118 14.8288C4.23908 14.4555 4.29683 13.9079 4.67016 13.6058C5.04348 13.3037 5.59103 13.3615 5.89313 13.7348C7.16987 15.3125 9.11915 16.3189 11.3041 16.3189C15.1461 16.3189 18.2606 13.2043 18.2606 9.36234C18.2606 5.52035 15.1461 2.40582 11.3041 2.40582C7.5862 2.40582 4.54951 5.32244 4.35726 8.99251ZM11.3041 3.27538C11.7844 3.27538 12.1737 3.6647 12.1737 4.14495V9.00216L14.5277 11.3562C14.8672 11.6957 14.8672 12.2463 14.5277 12.5859C14.1881 12.9255 13.6375 12.9255 13.2979 12.5859L10.6892 9.9772C10.5262 9.81416 10.4345 9.59294 10.4345 9.36234V4.14495C10.4345 3.6647 10.8238 3.27538 11.3041 3.27538Z" />
</svg>
