<svg width="24" height="20" viewBox="0 0 24 20" fill="none" xmlns="http://www.w3.org/2000/svg">
<path fill-rule="evenodd" clip-rule="evenodd" d="M12.4874 3.15359C12.1948 2.94874 11.8052 2.94874 11.5126 3.15359L11.5126 3.15361L6.15001 6.90739V16.4085C6.15001 16.878 6.53056 17.2585 7.00001 17.2585H17C17.4695 17.2585 17.85 16.878 17.85 16.4085V6.90739L12.4874 3.15361L12.4874 3.15359ZM20.15 8.51738V16.4085C20.15 18.1482 18.7397 19.5585 17 19.5585H7.00001C5.26033 19.5585 3.85001 18.1483 3.85001 16.4085V8.51738L2.65949 9.35074C2.13917 9.71496 1.42211 9.58842 1.05789 9.0681C0.693674 8.54778 0.820217 7.83072 1.34053 7.4665L10.1936 1.26939C10.1936 1.26938 10.1936 1.26938 10.1936 1.26937C11.2782 0.510145 12.7218 0.510145 13.8064 1.26937C13.8064 1.26938 13.8064 1.26938 13.8064 1.26939L22.6595 7.4665C23.1798 7.83072 23.3064 8.54778 22.9421 9.0681C22.5779 9.58842 21.8609 9.71496 21.3405 9.35074L20.15 8.51738Z" />
</svg>
