<svg width="21" height="20" viewBox="0 0 21 20" fill="none" xmlns="http://www.w3.org/2000/svg">
<path fill-rule="evenodd" clip-rule="evenodd" d="M0.683777 16.8493V2.49128C0.683777 1.24809 1.48397 0.240295 2.47106 0.240295H4.04721C5.0343 0.240295 5.83449 1.24809 5.83449 2.49128V16.8493C5.83449 18.0925 5.0343 19.1003 4.04721 19.1003H2.47106C1.48397 19.1003 0.683777 18.0925 0.683777 16.8493ZM2.1519 2.49128V16.8493C2.1519 17.0713 2.29479 17.2513 2.47106 17.2513H4.04721C4.22348 17.2513 4.36637 17.0713 4.36637 16.8493V2.49128C4.36637 2.26928 4.22348 2.08932 4.04721 2.08932H2.47106C2.29479 2.08932 2.1519 2.26928 2.1519 2.49128Z" />
<path fill-rule="evenodd" clip-rule="evenodd" d="M6.31547 16.8493V2.49128C6.31547 1.24809 7.11567 0.240295 8.10276 0.240295H9.67891C10.666 0.240295 11.4662 1.24809 11.4662 2.49128V16.8493C11.4662 18.0925 10.666 19.1003 9.67891 19.1003H8.10276C7.11567 19.1003 6.31547 18.0925 6.31547 16.8493ZM7.7836 2.49128V16.8493C7.7836 17.0713 7.92649 17.2513 8.10276 17.2513H9.67891C9.85518 17.2513 9.99807 17.0713 9.99807 16.8493V2.49128C9.99807 2.26928 9.85518 2.08932 9.67891 2.08932H8.10276C7.92649 2.08932 7.7836 2.26928 7.7836 2.49128Z" />
<path fill-rule="evenodd" clip-rule="evenodd" d="M12.1492 5.27813L15.7412 17.5154C16.0835 18.6815 17.1115 19.2773 18.0374 18.8462L19.5157 18.1579C20.4416 17.7268 20.9147 16.4321 20.5724 15.2661L16.9804 3.02876C16.6381 1.86271 15.6101 1.26689 14.6843 1.69796L13.2059 2.38628C12.28 2.81735 11.807 4.11208 12.1492 5.27813ZM17.1183 16.8743L13.5263 4.63698C13.4652 4.42876 13.5496 4.19756 13.715 4.12058L15.1933 3.43226C15.3587 3.35529 15.5422 3.46168 15.6034 3.66991L19.1954 15.9072C19.2565 16.1154 19.172 16.3466 19.0067 16.4236L17.5283 17.1119C17.363 17.1889 17.1794 17.0825 17.1183 16.8743Z" />
</svg>
