<svg width="25" height="23" viewBox="0 0 25 23" fill="none" xmlns="http://www.w3.org/2000/svg">
<path fill-rule="evenodd" clip-rule="evenodd" d="M18.4461 0.445554C18.8252 0.940733 18.727 1.64638 18.2268 2.02166L15.8808 3.78183H17.7448C19.8905 3.78183 21.7324 4.93383 22.9979 6.63687C24.2618 8.33758 25 10.6367 25 13.1409C25 15.821 23.6423 18.1581 21.8857 19.797C20.1459 21.4203 17.8626 22.5 15.7923 22.5H9.0035C6.92661 22.5 4.6899 21.4144 2.99878 19.7843C1.29057 18.1377 0 15.8035 0 13.1409C0 10.6367 0.738229 8.33758 2.00205 6.63687C3.26761 4.93383 5.1095 3.78183 7.25524 3.78183H9.0035C9.63109 3.78183 10.1399 4.28551 10.1399 4.90683C10.1399 5.52815 9.63109 6.03182 9.0035 6.03182H7.25524C5.9919 6.03182 4.77435 6.70309 3.83274 7.9702C2.88939 9.23965 2.27273 11.0576 2.27273 13.1409C2.27273 15.0659 3.21118 16.8487 4.58426 18.1723C5.97444 19.5123 7.67129 20.25 9.0035 20.25H15.7923C17.1311 20.25 18.8834 19.5065 20.327 18.1596C21.7538 16.8283 22.7273 15.0484 22.7273 13.1409C22.7273 11.0576 22.1106 9.23965 21.1673 7.9702C20.2257 6.70309 19.0081 6.03182 17.7448 6.03182H15.6557L18.2649 8.16929C18.7484 8.5654 18.816 9.27455 18.4159 9.75323C18.0158 10.2319 17.2995 10.2989 16.816 9.90275L11.7755 5.77356C11.5081 5.55446 11.3565 5.22636 11.3639 4.88277C11.3713 4.53919 11.537 4.2178 11.8136 4.01023L16.8541 0.228459C17.3542 -0.146821 18.067 -0.0496243 18.4461 0.445554Z" />
</svg>
