<svg width="46" height="30" viewBox="0 0 46 30" fill="none" xmlns="http://www.w3.org/2000/svg">
<path fill-rule="evenodd" clip-rule="evenodd" d="M22.813 9.86016C22.7477 9.81596 22.6809 9.77262 22.6133 9.73013L8.39313 0.842629C4.73934 -1.44101 -6.86646e-05 1.18582 -6.86646e-05 5.49458V24.5056C-6.86646e-05 28.8141 4.73934 31.441 8.39313 29.1574L22.6133 20.2697C22.6809 20.2275 22.7477 20.1842 22.813 20.14V22.6044C22.813 26.488 27.0086 28.923 30.3806 26.9959L43.0485 19.7573C46.7294 17.6539 46.7294 12.3462 43.0485 10.2429L30.3806 3.00399C27.0086 1.07712 22.813 3.51192 22.813 7.39567V9.86016Z" />
</svg>
