<svg width="26" height="23" viewBox="0 0 26 23" fill="none" xmlns="http://www.w3.org/2000/svg">
<path d="M19.1235 2.02166C19.6236 1.64638 19.7218 0.940733 19.3428 0.445554C18.9637 -0.0496243 18.2509 -0.146821 17.7507 0.228459L12.7103 4.01023C12.4336 4.2178 12.268 4.53919 12.2606 4.88277C12.2531 5.22636 12.4048 5.55446 12.6722 5.77356L17.7126 9.90275C18.1962 10.2989 18.9125 10.2319 19.3126 9.75323C19.7127 9.27455 19.6451 8.5654 19.1616 8.16929L16.5524 6.03182H18.6414C19.9048 6.03182 21.1223 6.70309 22.0639 7.9702C23.0073 9.23965 23.6239 11.0576 23.6239 13.1409C23.6239 15.0484 22.6505 16.8283 21.2237 18.1596C19.7801 19.5065 18.0277 20.25 16.6889 20.25H9.90016C8.56796 20.25 6.87111 19.5123 5.48093 18.1723C4.10784 16.8487 3.16939 15.0659 3.16939 13.1409C3.16939 11.0576 3.78606 9.23965 4.72941 7.9702C5.67102 6.70309 6.88857 6.03182 8.15191 6.03182H9.90016C10.5278 6.03182 11.0365 5.52815 11.0365 4.90683C11.0365 4.28551 10.5278 3.78183 9.90016 3.78183H8.15191C6.00617 3.78183 4.16428 4.93383 2.89872 6.63687C1.6349 8.33758 0.896667 10.6367 0.896667 13.1409C0.896667 15.8035 2.18724 18.1377 3.89545 19.7843C5.58656 21.4144 7.82328 22.5 9.90016 22.5H16.6889C18.7592 22.5 21.0426 21.4203 22.7824 19.797C24.539 18.1581 25.8967 15.821 25.8967 13.1409C25.8967 10.6367 25.1584 8.33758 23.8946 6.63687C22.6291 4.93383 20.7872 3.78183 18.6414 3.78183H16.7775L19.1235 2.02166Z" />
<path d="M14.2975 9.76672C14.2975 9.35532 14.0456 8.9859 13.6626 8.83573C13.2796 8.68555 12.8437 8.78528 12.564 9.08704L10.7467 11.0483C10.3713 11.4534 10.3954 12.0861 10.8006 12.4615C11.2057 12.8368 11.8384 12.8127 12.2137 12.4076L12.2975 12.3172V16.8223C12.2975 17.3746 12.7453 17.8223 13.2975 17.8223C13.8498 17.8223 14.2975 17.3746 14.2975 16.8223V9.76672Z" />
</svg>
