<svg width="23" height="21" viewBox="0 0 23 21" fill="none" xmlns="http://www.w3.org/2000/svg">
<path fill-rule="evenodd" clip-rule="evenodd" d="M12.8463 14.4558C11.6182 15.3315 10.1265 15.8448 8.51795 15.8448C4.32275 15.8448 0.921875 12.3533 0.921875 8.04626C0.921875 3.73922 4.32275 0.247681 8.51795 0.247681C12.7131 0.247681 16.114 3.73922 16.114 8.04626C16.114 9.84165 15.5231 11.4953 14.53 12.8135L21.644 18.623C22.1411 19.0289 22.2235 19.7717 21.8281 20.282C21.4327 20.7923 20.7093 20.8769 20.2122 20.471L12.8463 14.4558ZM13.814 8.04626C13.814 11.0492 11.4429 13.4835 8.51795 13.4835C5.59301 13.4835 3.22187 11.0492 3.22187 8.04626C3.22187 5.04334 5.59301 2.609 8.51795 2.609C11.4429 2.609 13.814 5.04334 13.814 8.04626Z" />
</svg>
