<svg width="25" height="23" viewBox="0 0 25 23" fill="none" xmlns="http://www.w3.org/2000/svg">
<path fill-rule="evenodd" clip-rule="evenodd" d="M10.129 0.829505C10.6714 0.390165 11.5508 0.390165 12.0932 0.829505L17.6488 5.3295C18.1912 5.76884 18.1912 6.48115 17.6488 6.92049L12.0932 11.4205C11.5508 11.8598 10.6714 11.8598 10.129 11.4205C9.58662 10.9812 9.58662 10.2688 10.129 9.8295L13.3136 7.25H1.38889C0.621827 7.25 0 6.74632 0 6.125C0 5.50368 0.621827 5 1.38889 5H13.3136L10.129 2.42049C9.58662 1.98116 9.58662 1.26884 10.129 0.829505ZM17.0735 12.0795C17.6159 11.6402 18.4953 11.6402 19.0376 12.0795L24.5932 16.5795C25.1356 17.0188 25.1356 17.7312 24.5932 18.1705L19.0376 22.6705C18.4953 23.1098 17.6159 23.1098 17.0735 22.6705C16.5311 22.2312 16.5311 21.5188 17.0735 21.0795L20.258 18.5H1.38889C0.621827 18.5 0 17.9963 0 17.375C0 16.7537 0.621827 16.25 1.38889 16.25H20.258L17.0735 13.6705C16.5311 13.2312 16.5311 12.5188 17.0735 12.0795Z" />
</svg>
