<svg width="20" height="19" viewBox="0 0 20 19" fill="none" xmlns="http://www.w3.org/2000/svg">
<path d="M6.8206 0C7.07556 0 7.33052 1.0587e-09 7.5901 0.00674601C7.60822 0.0186703 7.62136 0.0268317 7.6353 0.0285913C8.0039 0.0751097 8.34197 0.209858 8.66152 0.392317C8.98166 0.575109 9.29728 0.765821 9.61514 0.952612C9.64291 0.96893 9.67233 0.982573 9.70151 0.996317C9.81765 1.051 9.94166 1.05053 10.0662 1.04915C10.1868 1.04782 10.2994 1.01952 10.4035 0.95821C10.7187 0.77265 11.032 0.583994 11.3496 0.402709C11.5622 0.281377 11.7837 0.176342 12.0213 0.112755C12.1491 0.0785607 12.2804 0.0579269 12.4098 0.0297963C12.4261 0.0262648 12.4618 0.0431575 12.4512 0C12.6765 0 12.9019 -1.0587e-09 13.1311 0.00661241C13.1453 0.0184155 13.1551 0.0271963 13.1657 0.0282788C13.5573 0.0682952 13.9147 0.212526 14.2539 0.401109C14.715 0.657533 15.171 0.923371 15.6271 1.18884C15.9674 1.38696 16.2889 1.61037 16.5432 1.9175C16.8064 2.23548 16.9969 2.59155 17.1076 2.99007C17.2049 3.34042 17.2124 3.69944 17.2139 4.05904C17.2145 4.21565 17.2104 4.37227 17.2083 4.52889C17.208 4.55543 17.2084 4.58211 17.2057 4.60846C17.1818 4.84979 17.1876 5.0829 17.3298 5.29731C17.4067 5.41314 17.4916 5.51189 17.6144 5.57949C17.8777 5.72451 18.1395 5.87224 18.4008 6.02072C18.6553 6.1653 18.902 6.32248 19.1151 6.52477C19.4685 6.8602 19.7219 7.26093 19.8645 7.7272C19.9107 7.87837 19.9335 8.03671 19.9673 8.19172C19.9717 8.21224 19.9588 8.24488 20 8.24156C20 8.29539 20 8.34922 19.9941 8.40978C19.9921 8.42333 19.9961 8.43014 20 8.43694C20 9.10635 20 9.77576 19.995 10.4551C19.9934 10.4699 19.9967 10.4747 20 10.4796C20 10.51 20 10.5405 19.9936 10.5769C19.9915 10.5898 19.9957 10.5969 20 10.6039C20 10.6577 20 10.7116 19.9937 10.7677C19.9806 10.7879 19.971 10.8052 19.9673 10.8236C19.9498 10.91 19.9389 10.9981 19.9167 11.0831C19.7356 11.7756 19.3571 12.3308 18.7616 12.7334C18.4042 12.9751 18.0182 13.1676 17.6436 13.3797C17.3559 13.5426 17.2057 13.7919 17.1978 14.122C17.1943 14.2692 17.2082 14.4167 17.2076 14.5641C17.2064 14.8503 17.2044 15.1366 17.1957 15.4226C17.183 15.8401 17.0612 16.2285 16.8628 16.5936C16.7021 16.8893 16.4952 17.149 16.2388 17.3679C16.0565 17.5236 15.8577 17.6569 15.651 17.7772C15.1668 18.0588 14.6828 18.3408 14.1941 18.6144C13.9625 18.7441 13.7169 18.8463 13.4551 18.9015C13.3601 18.9216 13.264 18.9361 13.1685 18.9536C13.1509 18.9569 13.1231 18.9553 13.1439 18.9876C12.9304 18.9876 12.7168 18.9876 12.4997 18.9809C12.4484 18.9637 12.401 18.9505 12.3528 18.9432C11.9917 18.8885 11.6603 18.7507 11.3456 18.573C11.0375 18.3989 10.7367 18.2118 10.4305 18.0343C10.3625 17.9949 10.2876 17.959 10.2115 17.9435C9.98162 17.8968 9.76383 17.925 9.55776 18.0526C9.25718 18.2387 8.95205 18.4178 8.64411 18.5915C8.39167 18.7339 8.12557 18.8472 7.83948 18.9052C7.74146 18.9251 7.64195 18.9376 7.54298 18.9526C7.51035 18.9575 7.51016 18.9563 7.49556 18.9876C7.32349 18.9876 7.15142 18.9876 6.97572 18.9809C6.9506 18.9671 6.9296 18.9574 6.90756 18.9533C6.77746 18.9287 6.64584 18.9108 6.51713 18.8805C6.26554 18.8213 6.03065 18.7154 5.80694 18.5897C5.30311 18.3067 4.80257 18.0177 4.30358 17.7261C4.01709 17.5588 3.75123 17.3632 3.53076 17.1114C3.30305 16.8513 3.12975 16.5594 3.00161 16.2383C2.83287 15.8154 2.81843 15.3713 2.81034 14.9261C2.8081 14.8025 2.81746 14.6787 2.8211 14.5549C2.82344 14.4752 2.82592 14.3954 2.82676 14.3157C2.82772 14.2239 2.83028 14.132 2.82614 14.0405C2.81983 13.9007 2.75367 13.7828 2.68528 13.6645C2.61644 13.5453 2.52251 13.4571 2.40408 13.3904C2.09321 13.2154 1.78202 13.0409 1.47306 12.8626C1.20542 12.7081 0.959061 12.5234 0.755129 12.2906C0.351515 11.8298 0.103764 11.2979 0.0500189 10.6823C0.0454207 10.6297 0.0394371 10.5771 0.032689 10.5247C0.0295609 10.5003 0.0179108 10.4943 0 10.5151C0 10.473 1.0587e-09 10.4309 0.00474589 10.3875C0.0149168 10.3768 0.0203418 10.3674 0.0257669 10.358C0.017178 10.357 0.00858905 10.3561 5.29349e-08 10.3552C-3.51117e-10 9.75688 5.29349e-10 9.15852 0.00551917 8.55519C0.0143503 8.54304 0.0176624 8.53587 0.0260861 8.52306C0.0374829 8.43233 0.0433518 8.3472 0.0501248 8.26213C0.0798311 7.88905 0.197512 7.54338 0.375339 7.21622C0.503006 6.98135 0.661453 6.76864 0.848898 6.5793C1.01547 6.41104 1.20452 6.26793 1.40872 6.14861C1.74212 5.9538 2.07924 5.7653 2.41635 5.5769C2.65073 5.44592 2.82935 5.15397 2.82648 4.88622C2.82342 4.59981 2.81416 4.31347 2.81013 4.02706C2.80906 3.95076 2.82108 3.8743 2.82043 3.79798C2.81869 3.59409 2.83633 3.39234 2.87413 3.19204C2.97594 2.65245 3.22407 2.18755 3.59656 1.78821C3.81379 1.55532 4.07483 1.37637 4.34751 1.21609C4.82539 0.935189 5.30479 0.656714 5.78767 0.384536C6.02428 0.251172 6.27387 0.143093 6.54002 0.0800859C6.62594 0.0597459 6.71347 0.046286 6.80012 0.0289592C6.81434 0.0261161 6.84123 0.0289058 6.8206 0ZM4.43889 6.70328C4.21158 7.01083 3.93624 7.2667 3.60744 7.46205C3.41235 7.57796 3.21101 7.6833 3.01396 7.79598C2.84496 7.89262 2.67504 7.98822 2.51111 8.09299C2.35193 8.19472 2.26712 8.34723 2.2595 8.53657C2.25024 8.76669 2.24233 8.99705 2.24209 9.22731C2.24176 9.55832 2.24888 9.88934 2.25279 10.2204C2.25297 10.2352 2.25179 10.25 2.25298 10.2647C2.26151 10.3698 2.25381 10.4764 2.28761 10.579C2.34246 10.7455 2.45496 10.8594 2.60544 10.9434C2.89129 11.1029 3.17281 11.2703 3.46076 11.4258C4.05137 11.7448 4.47283 12.2202 4.76422 12.8177C4.97072 13.2411 5.06349 13.6904 5.05876 14.1604C5.05805 14.2309 5.04825 14.3014 5.04793 14.3718C5.04665 14.6619 5.04603 14.952 5.0486 15.242C5.04909 15.2968 5.06011 15.3529 5.07508 15.4059C5.1199 15.5646 5.22172 15.6787 5.36263 15.7613C5.57138 15.8836 5.77782 16.0099 5.98786 16.1299C6.30536 16.3113 6.62486 16.4892 6.94399 16.6677C7.14539 16.7803 7.34536 16.7664 7.54165 16.6543C7.71583 16.5549 7.88826 16.4524 8.06232 16.3527C8.29505 16.2195 8.52358 16.0776 8.76304 15.9577C9.07481 15.8015 9.41262 15.7253 9.75948 15.7051C9.95604 15.6937 10.1545 15.7038 10.3516 15.7146C10.5762 15.7269 10.7932 15.7827 11.0066 15.8534C11.2659 15.9395 11.5007 16.0738 11.7339 16.2128C12.0025 16.3729 12.2732 16.5297 12.5456 16.6831C12.718 16.7802 12.8973 16.7767 13.0695 16.6822C13.3694 16.5176 13.6681 16.3507 13.9642 16.1794C14.2195 16.0317 14.4732 15.8808 14.7223 15.7229C14.8901 15.6164 14.9754 15.4552 14.9761 15.254C14.977 14.962 14.9764 14.67 14.9762 14.378C14.9762 14.3573 14.9755 14.3366 14.9744 14.3159C14.9632 14.1061 14.9664 13.8963 14.9961 13.6885C15.0518 13.2987 15.1836 12.9355 15.3809 12.5941C15.5875 12.2366 15.8473 11.9277 16.1756 11.6766C16.3782 11.5216 16.6064 11.4096 16.8262 11.2833C17.0613 11.1481 17.2966 11.013 17.5292 10.8736C17.5758 10.8457 17.6149 10.8019 17.6501 10.7594C17.7492 10.6397 17.7758 10.4956 17.7765 10.3453C17.7776 10.0881 17.7783 9.83093 17.7764 9.57377C17.774 9.23978 17.7684 8.90582 17.7651 8.57184C17.763 8.35298 17.67 8.18186 17.4834 8.07179C17.1685 7.88612 16.8493 7.70763 16.5306 7.52858C16.2318 7.36076 15.9637 7.15437 15.741 6.89382C15.4679 6.57445 15.2604 6.21565 15.1234 5.81759C15.0387 5.57129 14.986 5.31793 14.9772 5.0573C14.9718 4.89796 14.9763 4.7383 14.9763 4.57878C14.9763 4.30648 14.9736 4.03413 14.9772 3.76187C14.9802 3.53244 14.8894 3.35454 14.6951 3.23525C14.4513 3.08554 14.205 2.93965 13.957 2.79694C13.6655 2.62926 13.3725 2.46431 13.0775 2.30291C12.8967 2.20396 12.7086 2.20072 12.5279 2.30267C12.2453 2.46214 11.9648 2.62547 11.6862 2.79191C11.4526 2.93151 11.2135 3.05772 10.953 3.14015C10.5506 3.26742 10.1385 3.30183 9.72007 3.26785C9.35474 3.23819 9.00502 3.14482 8.6785 2.97798C8.50021 2.88688 8.33094 2.77817 8.1573 2.67792C7.92742 2.54519 7.69727 2.41293 7.46718 2.28056C7.38778 2.23489 7.29875 2.2235 7.21094 2.22397C7.09406 2.22459 6.98717 2.26744 6.88578 2.32577C6.57649 2.50371 6.26494 2.67776 5.95661 2.85735C5.73487 2.98651 5.51443 3.11826 5.29802 3.25609C5.13478 3.36006 5.05237 3.5215 5.04976 3.71068C5.04521 4.04158 5.05416 4.3727 5.05953 4.70369C5.06365 4.95782 5.05103 5.21028 5.00129 5.46023C4.91102 5.91392 4.70923 6.31714 4.43889 6.70328Z" />
<path d="M5.32901e-08 10.3597C0.00858905 10.3561 0.017178 10.357 0.0257669 10.358C0.0203418 10.3674 0.0149168 10.3768 0.00474589 10.3796C1.58805e-09 10.373 0 10.3641 5.32901e-08 10.3597Z" />
<path d="M20 8.4325C19.9961 8.43014 19.9921 8.42333 19.9941 8.41785C20 8.41918 20 8.42806 20 8.4325Z" />
<path d="M0 8.5302C0.00354375 8.5259 0.0070875 8.52605 0.0158028 8.52745C0.0176624 8.53587 0.0143503 8.54304 0.00551917 8.54686C5.29349e-10 8.54352 0 8.53464 0 8.5302Z" />
<path d="M20 10.4751C19.9967 10.4747 19.9934 10.4699 19.995 10.4634C20 10.4618 20 10.4707 20 10.4751Z" />
<path d="M20 10.5995C19.9957 10.5969 19.9915 10.5898 19.9936 10.5845C20 10.5861 20 10.595 20 10.5995Z" />
<path fill-rule="evenodd" clip-rule="evenodd" d="M5.67441 7.72822C5.82195 7.3607 6.01366 7.02371 6.24654 6.71278C6.38455 6.52852 6.53701 6.35229 6.70122 6.191C7.00695 5.89069 7.34529 5.63018 7.72267 5.42235C7.9884 5.27601 8.26507 5.1566 8.55339 5.06316C8.82231 4.97601 9.09584 4.9088 9.37753 4.88037C9.52991 4.865 9.68288 4.85219 9.83588 4.84706C9.84598 4.84672 9.85608 4.84638 9.86618 4.84604C10.0259 4.84061 10.1865 4.83515 10.3452 4.84825C10.6547 4.87381 10.9598 4.92802 11.26 5.01315C11.5735 5.10205 11.8743 5.22074 12.1609 5.37303C12.4521 5.52768 12.7291 5.70546 12.9769 5.92499C13.0085 5.95297 13.0406 5.98052 13.0726 6.00807C13.1573 6.0808 13.2419 6.15356 13.318 6.23433C13.6021 6.53592 13.8566 6.86028 14.058 7.2248C14.206 7.4927 14.3274 7.77121 14.4218 8.06183C14.5091 8.33045 14.576 8.6039 14.6044 8.88535C14.6195 9.03479 14.6327 9.18477 14.6377 9.33481C14.6381 9.3472 14.6385 9.35959 14.6389 9.37199C14.6443 9.53209 14.6498 9.6931 14.6364 9.85209C14.6105 10.1612 14.5579 10.4665 14.4712 10.766C14.3815 11.076 14.2644 11.3737 14.1133 11.6585C13.9574 11.9524 13.7784 12.2308 13.5581 12.4811C13.5331 12.5095 13.5083 12.5382 13.4836 12.5669C13.4042 12.659 13.3247 12.7512 13.2364 12.8338C12.94 13.1109 12.6206 13.3577 12.2641 13.5565C11.8755 13.7732 11.4664 13.9344 11.0337 14.032C10.8612 14.0709 10.6844 14.0926 10.5082 14.1142C10.4848 14.1171 10.4613 14.12 10.4379 14.1229C10.4314 14.1237 10.4249 14.1246 10.4184 14.1254C10.2812 14.1425 10.1424 14.1598 10.005 14.1557C9.55436 14.142 9.10955 14.0906 8.67331 13.9622C8.18918 13.8196 7.74282 13.603 7.32906 13.3201C7.19743 13.2301 7.07614 13.1248 6.95499 13.0197C6.91476 12.9847 6.87455 12.9498 6.83398 12.9155C6.5309 12.659 6.29021 12.3486 6.07316 12.0193C5.78093 11.5761 5.57336 11.0947 5.45629 10.5773C5.40849 10.366 5.38084 10.1497 5.35384 9.93442C5.33376 9.77432 5.31419 9.61158 5.32115 9.45118C5.33979 9.02129 5.37982 8.59302 5.51797 8.18105C5.5438 8.10402 5.57065 8.02733 5.59778 7.9498C5.62327 7.87701 5.649 7.80347 5.67441 7.72822ZM7.7263 8.57844C7.80348 8.38601 7.90376 8.20958 8.02558 8.04679C8.09777 7.95031 8.17752 7.85804 8.26342 7.77359C8.42335 7.61637 8.60033 7.47997 8.79773 7.37116C8.93673 7.29453 9.08146 7.23202 9.23228 7.18309C9.37295 7.13747 9.51603 7.10227 9.66338 7.08739C9.74309 7.07934 9.82311 7.07264 9.90314 7.06995C9.90842 7.06977 9.91371 7.06959 9.91899 7.06941C10.0025 7.06657 10.0866 7.06371 10.1695 7.07057C10.3314 7.08396 10.4911 7.11234 10.6481 7.15691C10.8121 7.20346 10.9694 7.2656 11.1194 7.34533C11.2717 7.4263 11.4166 7.51938 11.5462 7.63432C11.5627 7.64897 11.5795 7.66339 11.5963 7.67782C11.6405 7.7159 11.6848 7.75399 11.7246 7.79629C11.8732 7.95419 12.0064 8.12401 12.1117 8.31486C12.1891 8.45513 12.2526 8.60095 12.302 8.7531C12.3477 8.89375 12.3826 9.03692 12.3975 9.18427C12.4054 9.26252 12.4123 9.34104 12.4149 9.4196C12.4152 9.42608 12.4154 9.43257 12.4156 9.43906C12.4184 9.52288 12.4213 9.60718 12.4143 9.69043C12.4007 9.85229 12.3732 10.0121 12.3278 10.1689C12.2809 10.3312 12.2197 10.4871 12.1406 10.6362C12.0591 10.7901 11.9654 10.9359 11.8502 11.0669C11.8371 11.0818 11.8242 11.0968 11.8112 11.1118C11.7697 11.16 11.7281 11.2083 11.6819 11.2516C11.5269 11.3967 11.3598 11.5259 11.1733 11.63C10.9701 11.7434 10.7561 11.8278 10.5297 11.8789C10.4395 11.8993 10.347 11.9106 10.2548 11.922C10.2426 11.9235 10.2303 11.925 10.218 11.9265L10.2079 11.9278C10.1361 11.9368 10.0635 11.9458 9.99162 11.9437C9.75588 11.9365 9.5232 11.9096 9.29501 11.8423C9.04176 11.7677 8.80827 11.6543 8.59184 11.5062C8.52298 11.4591 8.45953 11.4039 8.39616 11.3489C8.37512 11.3306 8.35408 11.3123 8.33286 11.2943C8.17433 11.16 8.04842 10.9975 7.93488 10.8251C7.78202 10.5931 7.67344 10.341 7.61221 10.0701C7.5872 9.95952 7.57274 9.84624 7.55861 9.73353C7.54811 9.64971 7.53787 9.56451 7.54151 9.48053C7.55127 9.25545 7.5722 9.03122 7.64447 8.81552C7.65798 8.7752 7.67202 8.73504 7.68622 8.69445C7.69955 8.65634 7.71301 8.61784 7.7263 8.57844Z" fill=''/>
</svg>
