<svg width="25" height="23" viewBox="0 0 25 23" fill="none" xmlns="http://www.w3.org/2000/svg">
<path fill-rule="evenodd" clip-rule="evenodd" d="M19.1161 0.366117C19.6043 -0.122039 20.3957 -0.122039 20.8839 0.366116L24.6339 4.11612C24.8683 4.35054 25 4.66848 25 5C25 5.33152 24.8683 5.64946 24.6339 5.88388L20.8839 9.63389C20.3957 10.122 19.6043 10.122 19.1161 9.63389C18.628 9.14573 18.628 8.35427 19.1161 7.86612L20.7322 6.25H18.75C17.623 6.25 16.5863 6.62139 15.7507 7.24901C15.1987 7.66361 14.4151 7.55223 14.0005 7.00024C13.5859 6.44824 13.6973 5.66466 14.2493 5.25006C15.5029 4.30846 17.063 3.75 18.75 3.75H20.7322L19.1161 2.13388C18.628 1.64573 18.628 0.854272 19.1161 0.366117ZM0 5C0 4.30964 0.559644 3.75 1.25 3.75H6.25C10.3921 3.75 13.75 7.10787 13.75 11.25C13.75 14.0114 15.9886 16.25 18.75 16.25H20.7322L19.1161 14.6339C18.628 14.1457 18.628 13.3543 19.1161 12.8661C19.6043 12.378 20.3957 12.378 20.8839 12.8661L24.6339 16.6161C24.8683 16.8505 25 17.1685 25 17.5C25 17.8315 24.8683 18.1495 24.6339 18.3839L20.8839 22.1339C20.3957 22.622 19.6043 22.622 19.1161 22.1339C18.628 21.6457 18.628 20.8543 19.1161 20.3661L20.7322 18.75H18.75C14.6079 18.75 11.25 15.3921 11.25 11.25C11.25 8.48858 9.01142 6.25 6.25 6.25H1.25C0.559644 6.25 0 5.69036 0 5ZM10.9995 15.4993C11.4141 16.0513 11.3027 16.8348 10.7507 17.2495C9.49734 18.1909 7.93725 18.75 6.25 18.75H1.25C0.559644 18.75 0 18.1904 0 17.5C0 16.8096 0.559644 16.25 1.25 16.25H6.25C7.37677 16.25 8.41351 15.8783 9.24927 15.2506C9.80125 14.8359 10.5848 14.9473 10.9995 15.4993Z" />
</svg>
