<svg width="15" height="15" viewBox="0 0 15 15" fill="none" xmlns="http://www.w3.org/2000/svg">
<path fill-rule="evenodd" clip-rule="evenodd" d="M7.50002 9.16691L2.10557 14.6339C1.62389 15.122 0.842938 15.122 0.361259 14.6339C-0.12042 14.1457 -0.12042 13.3543 0.361259 12.8661L5.65618 7.5L0.361259 2.13388C-0.12042 1.64573 -0.12042 0.854272 0.361259 0.366117C0.842938 -0.122039 1.62389 -0.122039 2.10557 0.366117L7.50002 5.83309L12.8945 0.366117C13.3761 -0.122039 14.1571 -0.122039 14.6388 0.366117C15.1205 0.854271 15.1205 1.64573 14.6388 2.13388L9.34385 7.5L14.6388 12.8661C15.1205 13.3543 15.1205 14.1457 14.6388 14.6339C14.1571 15.122 13.3761 15.122 12.8945 14.6339L7.50002 9.16691Z" />
</svg>
